<svg width="819" height="277" viewBox="0 0 819 277" fill="none" xmlns="http://www.w3.org/2000/svg">
<g filter="url(#filter0_d_8_2)">
<path d="M100.388 142.532C103.961 142.532 107.713 142.443 111.644 142.264C115.753 141.907 119.595 141.192 123.168 140.12C126.741 138.869 129.689 136.993 132.012 134.492C134.335 131.991 135.496 128.417 135.496 123.772C135.496 121.092 134.96 118.948 133.888 117.34C132.816 115.732 131.387 114.571 129.6 113.856C127.813 112.963 125.848 112.427 123.704 112.248C121.739 112.069 119.684 111.98 117.54 111.98C114.681 111.98 111.823 112.159 108.964 112.516C106.105 112.873 103.247 113.231 100.388 113.588V142.532ZM32.852 131.008C32.6733 125.648 29.904 122.968 24.544 122.968C19.0053 122.968 15.968 120.377 15.432 115.196L12.484 80.356C11.948 73.2093 15.164 69.2787 22.132 68.564L104.944 59.72C114.056 58.648 123.883 58.7373 134.424 59.988C145.144 61.2387 155.06 63.9187 164.172 68.028C173.463 72.1373 181.145 78.0333 187.22 85.716C193.295 93.3987 196.332 103.136 196.332 114.928C196.332 128.864 193.652 140.031 188.292 148.428C182.932 156.825 174.624 163.615 163.368 168.796C156.936 171.655 156.311 175.407 161.492 180.052L196.064 210.872C201.424 215.696 201.156 220.163 195.26 224.272L155.596 251.608C149.521 255.717 144.519 254.824 140.588 248.928L106.552 199.884C102.443 193.809 100.388 194.435 100.388 201.76V237.94C100.388 245.087 96.8147 248.928 89.668 249.464L46.52 252.412C39.3733 252.948 35.7107 249.643 35.532 242.496L32.852 131.008ZM203.807 154.86C203.807 119.127 212.74 93.1307 230.607 76.872C248.473 60.4347 274.469 52.216 308.595 52.216C325.032 52.216 339.683 54.36 352.547 58.648C365.589 62.936 376.577 69.368 385.511 77.944C394.623 86.52 401.501 97.24 406.147 110.104C410.971 122.789 413.383 137.708 413.383 154.86C413.383 191.129 404.717 217.572 387.387 234.188C370.235 250.625 344.239 258.844 309.399 258.844C275.809 258.844 249.813 250.268 231.411 233.116C213.008 215.964 203.807 189.879 203.807 154.86ZM284.475 154.324C284.475 158.791 284.832 162.9 285.547 166.652C286.261 170.404 287.512 173.62 289.299 176.3C291.085 178.98 293.587 181.124 296.803 182.732C300.197 184.161 304.396 184.876 309.399 184.876C314.58 184.876 318.689 184.161 321.727 182.732C324.943 181.124 327.444 178.98 329.231 176.3C331.196 173.62 332.447 170.404 332.983 166.652C333.697 162.9 334.055 158.791 334.055 154.324C334.055 149.857 333.697 145.748 332.983 141.996C332.447 138.065 331.285 134.671 329.499 131.812C327.712 128.953 325.211 126.72 321.995 125.112C318.779 123.504 314.58 122.7 309.399 122.7C304.575 122.7 300.555 123.593 297.339 125.38C294.123 126.988 291.532 129.221 289.567 132.08C287.78 134.939 286.44 138.333 285.547 142.264C284.832 146.016 284.475 150.036 284.475 154.324ZM491.145 50.608C498.291 49.536 503.473 52.216 506.689 58.648L537.241 121.628C540.457 127.881 542.154 127.524 542.333 120.556L544.209 64.008C544.566 59.8987 545.817 56.9507 547.961 55.164C545.281 56.4147 542.333 57.04 539.117 57.04C535.007 57.04 530.898 56.236 526.789 54.628C522.858 52.8413 519.017 50.876 515.265 48.732C511.513 46.588 507.939 44.712 504.545 43.104C501.329 41.3173 498.381 40.424 495.701 40.424C493.021 40.424 490.609 41.4067 488.465 43.372C486.321 45.3373 484.177 47.5707 482.033 50.072C481.675 50.4293 481.318 50.7867 480.961 51.144C480.603 51.5013 480.246 51.8587 479.889 52.216L491.145 50.608ZM471.849 53.556C470.955 53.1987 469.705 52.216 468.097 50.608L467.293 49.804C464.791 46.9453 463.094 44.0867 462.201 41.228C461.307 38.3693 461.575 35.4213 463.005 32.384C464.434 28.9893 466.31 25.684 468.633 22.468C471.134 19.252 473.725 16.3933 476.405 13.892C479.263 11.3907 482.301 9.42532 485.517 7.99598C488.733 6.38798 491.859 5.58398 494.897 5.58398C499.006 5.58398 502.937 6.38798 506.689 7.99598C510.619 9.60399 514.282 11.3907 517.677 13.356C521.25 15.3213 524.645 17.108 527.861 18.716C531.077 20.324 534.203 21.128 537.241 21.128C540.457 21.128 543.137 20.4133 545.281 18.984C547.425 17.376 549.301 15.5 550.909 13.356C554.839 7.45999 558.591 7.19198 562.165 12.552L564.577 16.304C566.721 19.8773 568.15 23.1827 568.865 26.22C569.579 29.2573 569.311 32.2053 568.061 35.064C566.453 39.1733 564.13 42.836 561.093 46.052C558.055 49.268 554.75 51.8587 551.177 53.824C551.891 53.6453 552.517 53.556 553.053 53.556C553.589 53.3773 554.303 53.288 555.197 53.288L599.685 54.092C606.831 54.092 610.494 57.6653 610.673 64.812L614.425 228.024C614.603 234.992 611.209 239.191 604.241 240.62L560.825 248.124C553.857 249.375 548.765 246.784 545.549 240.352L513.389 177.64C510.173 171.387 508.207 171.744 507.493 178.712L501.865 234.724C500.971 242.049 497.041 245.712 490.073 245.712L442.637 246.248C435.49 246.248 432.006 242.764 432.185 235.796L435.401 124.04C435.579 116.893 432.185 114.035 425.217 115.464L423.877 115.732C416.73 117.161 413.157 114.303 413.157 107.156L412.889 73.12C412.889 65.9733 416.373 61.864 423.341 60.792L471.849 53.556ZM715.241 165.044C721.673 165.044 724.263 161.739 723.013 155.128L717.385 128.864C715.955 122.253 714.437 122.253 712.829 128.864L707.201 155.128C705.95 161.739 708.63 165.044 715.241 165.044ZM649.581 133.688C651.189 126.899 648.509 123.504 641.541 123.504H631.893C624.925 123.504 622.423 120.199 624.389 113.588L635.109 77.944C637.074 71.3333 641.719 68.028 649.045 68.028L750.349 69.368C757.317 69.368 761.783 72.9413 763.749 80.088L805.021 237.404C806.807 244.372 804.127 247.945 796.981 248.124L754.905 249.732C747.758 249.911 743.202 246.516 741.237 239.548L735.877 219.716C733.911 212.569 729.355 209.264 722.209 209.8L710.417 210.604C703.27 211.14 698.803 214.803 697.017 221.592L692.729 237.404C690.942 244.372 686.475 247.856 679.329 247.856L631.893 248.392C624.925 248.392 622.245 244.908 623.853 237.94L649.581 133.688Z" fill="white"/>
<path d="M100.388 142.532H80.388C80.388 153.578 89.3423 162.532 100.388 162.532V142.532ZM111.644 142.264L112.552 162.243C112.827 162.231 113.102 162.213 113.377 162.189L111.644 142.264ZM123.168 140.12L128.915 159.277C129.204 159.19 129.49 159.097 129.775 158.997L123.168 140.12ZM133.888 117.34L150.529 106.246L150.529 106.246L133.888 117.34ZM129.6 113.856L120.656 131.745C121.152 131.992 121.657 132.22 122.172 132.426L129.6 113.856ZM123.704 112.248L121.893 132.166C121.943 132.17 121.993 132.175 122.043 132.179L123.704 112.248ZM108.964 112.516L111.445 132.362L111.445 132.362L108.964 112.516ZM100.388 113.588L97.9073 93.7424C87.8987 94.9935 80.388 103.502 80.388 113.588H100.388ZM32.852 131.008L52.8462 130.527C52.8447 130.465 52.843 130.404 52.8409 130.342L32.852 131.008ZM15.432 115.196L-4.49678 116.882C-4.48629 117.006 -4.47464 117.13 -4.46184 117.254L15.432 115.196ZM12.484 80.356L-7.45999 81.8518C-7.45522 81.9153 -7.45016 81.9788 -7.44478 82.0423L12.484 80.356ZM22.132 68.564L24.1726 88.4596C24.2003 88.4568 24.2281 88.4539 24.2558 88.4509L22.132 68.564ZM104.944 59.72L107.068 79.6069C107.139 79.5993 107.21 79.5913 107.281 79.583L104.944 59.72ZM134.424 59.988L132.068 79.8487C132.081 79.8502 132.093 79.8517 132.106 79.8532L134.424 59.988ZM164.172 68.028L155.95 86.2597C155.994 86.2795 156.038 86.2992 156.082 86.3187L164.172 68.028ZM187.22 85.716L171.532 98.1207L171.532 98.1207L187.22 85.716ZM188.292 148.428L171.434 137.667V137.667L188.292 148.428ZM163.368 168.796L171.491 187.072C171.571 187.037 171.651 187 171.731 186.964L163.368 168.796ZM161.492 180.052L148.141 194.943C148.155 194.956 148.169 194.968 148.183 194.981L161.492 180.052ZM196.064 210.872L209.443 196.006C209.42 195.985 209.396 195.964 209.373 195.943L196.064 210.872ZM195.26 224.272L206.609 240.74C206.638 240.72 206.667 240.7 206.696 240.68L195.26 224.272ZM155.596 251.608L166.802 268.174C166.85 268.141 166.898 268.109 166.945 268.076L155.596 251.608ZM140.588 248.928L157.229 237.834C157.16 237.73 157.09 237.627 157.019 237.525L140.588 248.928ZM106.552 199.884L89.9863 211.09C90.0309 211.156 90.0758 211.222 90.1211 211.287L106.552 199.884ZM89.668 249.464L91.0313 269.417C91.0755 269.414 91.1196 269.411 91.1638 269.408L89.668 249.464ZM46.52 252.412L45.1567 232.459C45.1125 232.462 45.0684 232.465 45.0242 232.468L46.52 252.412ZM35.532 242.496L15.5378 242.977C15.5379 242.983 15.5381 242.989 15.5382 242.996L35.532 242.496ZM100.388 162.532C104.293 162.532 108.349 162.434 112.552 162.243L110.736 122.285C107.078 122.451 103.63 122.532 100.388 122.532V162.532ZM113.377 162.189C118.706 161.725 123.904 160.78 128.915 159.277L117.421 120.963C115.285 121.604 112.801 122.088 109.911 122.339L113.377 162.189ZM129.775 158.997C136.079 156.791 141.897 153.238 146.668 148.101L117.356 120.883C117.384 120.853 117.39 120.858 117.321 120.902C117.246 120.95 117.018 121.083 116.561 121.243L129.775 158.997ZM146.668 148.101C153.505 140.738 155.496 131.618 155.496 123.772H115.496C115.496 124.471 115.404 124.371 115.604 123.754C115.83 123.059 116.348 121.968 117.356 120.883L146.668 148.101ZM155.496 123.772C155.496 118.619 154.487 112.183 150.529 106.246L117.247 128.434C115.433 125.713 115.496 123.565 115.496 123.772H155.496ZM150.529 106.246C147.223 101.287 142.588 97.5106 137.028 95.2865L122.172 132.426C121.278 132.068 120.319 131.532 119.4 130.785C118.482 130.039 117.769 129.217 117.247 128.434L150.529 106.246ZM138.544 95.9675C134.312 93.8511 129.848 92.6906 125.365 92.3171L122.043 132.179C121.966 132.172 121.783 132.15 121.524 132.079C121.261 132.008 120.964 131.898 120.656 131.745L138.544 95.9675ZM125.515 92.3301C122.899 92.0923 120.237 91.98 117.54 91.98V131.98C119.131 131.98 120.579 132.046 121.893 132.166L125.515 92.3301ZM117.54 91.98C113.846 91.98 110.158 92.211 106.483 92.6704L111.445 132.362C113.487 132.106 115.517 131.98 117.54 131.98V91.98ZM106.483 92.6704C103.625 93.0278 100.766 93.3851 97.9073 93.7424L102.869 133.434C105.727 133.076 108.586 132.719 111.445 132.362L106.483 92.6704ZM80.388 113.588V142.532H120.388V113.588H80.388ZM52.8409 130.342C52.6472 124.532 50.9154 116.767 44.5494 110.606C38.1816 104.444 30.361 102.968 24.544 102.968V142.968C24.087 142.968 20.3311 142.832 16.7326 139.35C13.1359 135.869 12.8781 132.124 12.8631 131.674L52.8409 130.342ZM24.544 102.968C24.6981 102.968 27.8037 103.005 31.0909 105.808C34.5612 108.768 35.2316 112.227 35.3258 113.138L-4.46184 117.254C-3.83161 123.346 -1.37451 130.691 5.13307 136.242C11.4576 141.636 18.8513 142.968 24.544 142.968V102.968ZM35.3608 113.51L32.4128 78.6697L-7.44478 82.0423L-4.49678 116.882L35.3608 113.51ZM32.428 78.8602C32.3853 78.2916 32.7467 81.3228 29.9732 84.7127C27.1297 88.1881 23.914 88.4861 24.1726 88.4596L20.0914 48.6684C13.382 49.3565 5.07429 51.9773 -0.985149 59.3832C-6.97475 66.7039 -7.95334 75.2737 -7.45999 81.8518L32.428 78.8602ZM24.2558 88.4509L107.068 79.6069L102.82 39.8331L20.0082 48.6771L24.2558 88.4509ZM107.281 79.583C114.613 78.7204 122.848 78.7548 132.068 79.8487L136.78 40.1273C124.918 38.7199 113.499 38.5756 102.607 39.857L107.281 79.583ZM132.106 79.8532C140.948 80.8848 148.854 83.0596 155.95 86.2597L172.394 49.7963C161.266 44.7778 149.34 41.5925 136.742 40.1227L132.106 79.8532ZM156.082 86.3187C162.514 89.1636 167.55 93.0851 171.532 98.1207L202.908 73.3113C194.741 62.9815 184.412 55.1111 172.262 49.7373L156.082 86.3187ZM171.532 98.1207C174.277 101.593 176.332 106.689 176.332 114.928H216.332C216.332 99.5834 212.312 85.2048 202.908 73.3113L171.532 98.1207ZM176.332 114.928C176.332 126.51 174.078 133.525 171.434 137.667L205.15 159.189C213.227 146.536 216.332 131.218 216.332 114.928H176.332ZM171.434 137.667C168.588 142.126 163.627 146.66 155.005 150.628L171.731 186.964C185.621 180.57 197.276 171.525 205.15 159.189L171.434 137.667ZM155.245 150.52C150.926 152.439 140.437 157.928 138.347 170.466C136.229 183.173 144.582 191.753 148.141 194.943L174.843 165.161C174.545 164.893 175.375 165.54 176.274 167.198C177.276 169.044 178.549 172.563 177.803 177.042C177.061 181.491 174.749 184.352 173.305 185.704C171.995 186.931 171.08 187.255 171.491 187.072L155.245 150.52ZM148.183 194.981L182.755 225.801L209.373 195.943L174.801 165.123L148.183 194.981ZM182.685 225.738C183.593 226.556 179.513 223.412 179.919 216.642C180.327 209.841 184.789 207.191 183.824 207.864L206.696 240.68C211.627 237.243 219.171 230.306 219.847 219.038C220.521 207.801 213.895 200.012 209.443 196.006L182.685 225.738ZM183.911 207.804L144.247 235.14L166.945 268.076L206.609 240.74L183.911 207.804ZM144.39 235.042C143.756 235.471 146.285 233.525 150.804 234.331C155.5 235.17 157.392 238.078 157.229 237.834L123.947 260.022C127.715 265.674 134.073 271.977 143.772 273.709C153.293 275.409 161.361 271.854 166.802 268.174L144.39 235.042ZM157.019 237.525L122.983 188.481L90.1211 211.287L124.157 260.331L157.019 237.525ZM123.118 188.678C121.759 186.67 119.75 183.941 117.102 181.6C115.7 180.36 107.53 173.187 96.1058 176.664C84.6507 180.15 81.8807 190.695 81.4094 192.518C80.5234 195.947 80.388 199.338 80.388 201.76H120.388C120.388 200.52 120.509 201.086 120.137 202.526C119.947 203.261 119.383 205.22 117.871 207.477C116.25 209.896 113.05 213.318 107.752 214.93C102.46 216.541 97.9066 215.484 95.2294 214.39C92.7275 213.368 91.1726 212.067 90.6085 211.568C89.5016 210.59 89.2899 210.061 89.9863 211.09L123.118 188.678ZM80.388 201.76V237.94H120.388V201.76H80.388ZM80.388 237.94C80.388 238.316 80.3238 235.505 83.0643 232.559C85.7966 229.622 88.5842 229.489 88.1722 229.52L91.1638 269.408C97.8985 268.903 106.046 266.582 112.352 259.803C118.666 253.016 120.388 244.711 120.388 237.94H80.388ZM88.3047 229.511L45.1567 232.459L47.8833 272.365L91.0313 269.417L88.3047 229.511ZM45.0242 232.468C44.4155 232.514 48.0441 232.087 51.8123 235.487C55.5914 238.898 55.5402 242.572 55.5258 241.996L15.5382 242.996C15.7025 249.567 17.5719 258.467 25.0137 265.183C32.4446 271.889 41.4779 272.846 48.0158 272.356L45.0242 232.468ZM55.5262 242.015L52.8462 130.527L12.8578 131.489L15.5378 242.977L55.5262 242.015ZM230.607 76.872L244.068 91.6641C244.094 91.6397 244.121 91.6152 244.148 91.5906L230.607 76.872ZM352.547 58.648L346.222 77.6217C346.248 77.6303 346.274 77.639 346.3 77.6475L352.547 58.648ZM385.511 77.944L371.66 92.3717C371.708 92.4174 371.755 92.4628 371.803 92.508L385.511 77.944ZM406.147 110.104L387.336 116.897C387.374 117.003 387.413 117.108 387.453 117.213L406.147 110.104ZM387.387 234.188L401.225 248.628L401.228 248.625L387.387 234.188ZM231.411 233.116L217.774 247.747L231.411 233.116ZM285.547 166.652L265.9 170.394L265.9 170.394L285.547 166.652ZM289.299 176.3L272.658 187.394V187.394L289.299 176.3ZM296.803 182.732L287.858 200.621C288.247 200.815 288.641 200.996 289.042 201.165L296.803 182.732ZM321.727 182.732L330.243 200.828C330.386 200.761 330.529 200.692 330.671 200.621L321.727 182.732ZM329.231 176.3L313.103 164.473C312.926 164.713 312.755 164.958 312.59 165.206L329.231 176.3ZM332.983 166.652L313.336 162.91C313.278 163.213 313.227 163.518 313.184 163.824L332.983 166.652ZM332.983 141.996L313.166 144.698C313.214 145.046 313.27 145.393 313.336 145.738L332.983 141.996ZM329.499 131.812L312.539 142.412V142.412L329.499 131.812ZM297.339 125.38L306.283 143.269C306.542 143.139 306.798 143.004 307.052 142.863L297.339 125.38ZM289.567 132.08L273.086 120.749C272.921 120.989 272.761 121.233 272.607 121.48L289.567 132.08ZM285.547 142.264L266.044 137.832C265.992 138.061 265.944 138.291 265.9 138.522L285.547 142.264ZM223.807 154.86C223.807 122.036 232.025 102.623 244.068 91.6641L217.146 62.0799C193.455 83.6383 183.807 116.217 183.807 154.86H223.807ZM244.148 91.5906C257.057 79.7142 277.449 72.216 308.595 72.216V32.216C271.49 32.216 239.89 41.1551 217.066 62.1534L244.148 91.5906ZM308.595 72.216C323.323 72.216 335.777 74.14 346.222 77.6217L358.871 39.6743C343.588 34.58 326.741 32.216 308.595 32.216V72.216ZM346.3 77.6475C356.81 81.1029 365.113 86.0861 371.66 92.3717L399.361 63.5163C388.042 52.6499 374.368 44.7691 358.793 39.6485L346.3 77.6475ZM371.803 92.508C378.42 98.7354 383.656 106.708 387.336 116.897L424.958 103.311C419.346 87.7717 410.825 74.3046 399.218 63.38L371.803 92.508ZM387.453 117.213C391.219 127.117 393.383 139.523 393.383 154.86H433.383C433.383 135.893 430.722 118.462 424.841 102.995L387.453 117.213ZM393.383 154.86C393.383 188.439 385.316 208.466 373.545 219.751L401.228 248.625C424.118 226.678 433.383 193.819 433.383 154.86H393.383ZM373.549 219.748C361.544 231.253 341.465 238.844 309.399 238.844V278.844C347.012 278.844 378.926 269.998 401.225 248.628L373.549 219.748ZM309.399 238.844C279.137 238.844 258.649 231.163 245.047 218.485L217.774 247.747C240.978 269.373 272.482 278.844 309.399 278.844V238.844ZM245.047 218.485C232.092 206.411 223.807 186.567 223.807 154.86H183.807C183.807 193.19 193.924 225.517 217.774 247.747L245.047 218.485ZM264.475 154.324C264.475 159.841 264.915 165.222 265.9 170.394L305.193 162.91C304.749 160.578 304.475 157.74 304.475 154.324H264.475ZM265.9 170.394C267.024 176.293 269.139 182.116 272.658 187.394L305.94 165.206C305.885 165.124 305.499 164.515 305.193 162.91L265.9 170.394ZM272.658 187.394C276.592 193.296 281.899 197.641 287.858 200.621L305.747 164.843C305.469 164.705 305.432 164.649 305.531 164.733C305.577 164.773 305.644 164.836 305.721 164.922C305.798 165.009 305.872 165.105 305.94 165.206L272.658 187.394ZM289.042 201.165C295.603 203.928 302.628 204.876 309.399 204.876V164.876C306.164 164.876 304.791 164.395 304.564 164.299L289.042 201.165ZM309.399 204.876C316.081 204.876 323.488 204.007 330.243 200.828L313.211 164.636C313.644 164.432 313.641 164.514 312.94 164.636C312.249 164.756 311.104 164.876 309.399 164.876V204.876ZM330.671 200.621C336.63 197.641 341.937 193.296 345.872 187.394L312.59 165.206C312.657 165.105 312.731 165.009 312.809 164.922C312.885 164.836 312.952 164.773 312.999 164.733C313.097 164.649 313.06 164.705 312.782 164.843L330.671 200.621ZM345.359 188.127C349.527 182.443 351.847 176.026 352.782 169.48L313.184 163.824C313.111 164.333 313.023 164.577 313.003 164.629C312.987 164.67 313.012 164.596 313.103 164.473L345.359 188.127ZM352.629 170.394C353.615 165.222 354.055 159.841 354.055 154.324H314.055C314.055 157.74 313.78 160.578 313.336 162.91L352.629 170.394ZM354.055 154.324C354.055 148.807 353.615 143.426 352.629 138.254L313.336 145.738C313.78 148.07 314.055 150.908 314.055 154.324H354.055ZM352.799 139.294C351.948 133.048 349.988 126.858 346.459 121.212L312.539 142.412C312.583 142.483 312.946 143.082 313.166 144.698L352.799 139.294ZM346.459 121.212C342.591 115.023 337.218 110.363 330.939 107.223L313.05 143.001C313.189 143.07 313.124 143.056 312.962 142.912C312.794 142.761 312.643 142.579 312.539 142.412L346.459 121.212ZM330.939 107.223C323.996 103.752 316.412 102.7 309.399 102.7V142.7C310.982 142.7 312.04 142.825 312.672 142.946C313.3 143.066 313.356 143.153 313.05 143.001L330.939 107.223ZM309.399 102.7C302.201 102.7 294.596 104.024 287.626 107.897L307.052 142.863C306.513 143.162 306.948 142.7 309.399 142.7V102.7ZM288.394 107.491C282.267 110.555 277.04 114.999 273.086 120.749L306.048 143.411C306.064 143.386 306.069 143.382 306.063 143.389C306.056 143.397 306.048 143.405 306.042 143.409C306.037 143.414 306.047 143.405 306.079 143.384C306.111 143.362 306.176 143.322 306.283 143.269L288.394 107.491ZM272.607 121.48C269.427 126.568 267.339 132.133 266.044 137.832L305.049 146.696C305.541 144.534 306.133 143.309 306.527 142.68L272.607 121.48ZM265.9 138.522C264.924 143.647 264.475 148.931 264.475 154.324H304.475C304.475 151.141 304.74 148.385 305.193 146.006L265.9 138.522ZM491.145 50.608L493.973 70.407C494.019 70.4004 494.065 70.3936 494.111 70.3867L491.145 50.608ZM506.689 58.648L524.683 49.9188C524.648 49.8469 524.613 49.7752 524.577 49.7037L506.689 58.648ZM537.241 121.628L519.246 130.357C519.314 130.497 519.384 130.637 519.455 130.775L537.241 121.628ZM542.333 120.556L522.344 119.893C522.342 119.943 522.34 119.993 522.339 120.043L542.333 120.556ZM544.209 64.008L524.284 62.2754C524.253 62.6312 524.231 62.9879 524.22 63.3449L544.209 64.008ZM547.961 55.164L560.764 70.5284C568.485 64.0941 570.232 52.9291 564.845 44.4441C559.458 35.9591 548.611 32.79 539.503 37.0403L547.961 55.164ZM526.789 54.628L518.513 72.8353C518.838 72.9833 519.168 73.1225 519.501 73.2528L526.789 54.628ZM515.265 48.732L525.187 31.3671L525.187 31.3671L515.265 48.732ZM504.545 43.104L494.832 60.5871C495.209 60.7967 495.593 60.994 495.983 61.1787L504.545 43.104ZM488.465 43.372L501.979 58.1151L501.979 58.1151L488.465 43.372ZM482.033 50.072L496.175 64.214C496.537 63.8521 496.885 63.4764 497.218 63.0878L482.033 50.072ZM480.961 51.144L466.819 37.0017L466.818 37.002L480.961 51.144ZM479.889 52.216L465.747 38.0737C459.659 44.1609 458.15 53.4604 462 61.1602C465.85 68.86 474.195 73.2324 482.717 72.015L479.889 52.216ZM471.849 53.556L474.799 73.3371C483.734 72.0043 490.666 64.8476 491.714 55.875C492.761 46.9023 487.664 38.3414 479.276 34.9864L471.849 53.556ZM468.097 50.608L453.954 64.7501L453.954 64.7501L468.097 50.608ZM467.293 49.804L452.241 62.9741C452.533 63.3081 452.837 63.6322 453.15 63.9461L467.293 49.804ZM462.201 41.228L481.29 35.2625V35.2625L462.201 41.228ZM463.005 32.384L481.101 40.8999C481.218 40.6507 481.33 40.399 481.437 40.1451L463.005 32.384ZM468.633 22.468L452.846 10.1892C452.7 10.3763 452.558 10.566 452.419 10.7582L468.633 22.468ZM476.405 13.892L463.234 -1.15955C463.073 -1.01863 462.915 -0.875134 462.758 -0.729117L476.405 13.892ZM485.517 7.99599L493.639 26.2722C493.916 26.1492 494.19 26.02 494.461 25.8845L485.517 7.99599ZM506.689 7.99599L498.81 26.3789C498.912 26.4224 499.014 26.4651 499.116 26.5069L506.689 7.99599ZM517.677 13.356L507.656 30.6645C507.782 30.7378 507.91 30.8098 508.038 30.8803L517.677 13.356ZM545.281 18.984L556.375 35.625C556.682 35.4197 556.985 35.206 557.281 34.984L545.281 18.984ZM550.909 13.356L566.909 25.356C567.131 25.06 567.344 24.7579 567.55 24.45L550.909 13.356ZM562.165 12.552L578.988 1.73683C578.928 1.64338 578.867 1.55042 578.806 1.45798L562.165 12.552ZM564.577 16.304L581.726 6.01409C581.62 5.83733 581.512 5.66223 581.4 5.48883L564.577 16.304ZM568.061 35.064L549.737 27.0476C549.632 27.2884 549.531 27.5313 549.436 27.776L568.061 35.064ZM551.177 53.824L541.538 36.2997C532.731 41.1437 528.887 51.772 532.558 61.1291C536.23 70.4862 546.276 75.6647 556.027 73.2269L551.177 53.824ZM553.053 53.556V73.556C555.202 73.556 557.338 73.2094 559.377 72.5297L553.053 53.556ZM555.197 53.288L555.558 33.2913C555.438 33.2891 555.317 33.288 555.197 33.288V53.288ZM599.685 54.092L599.323 74.0887C599.444 74.0909 599.564 74.092 599.685 74.092V54.092ZM610.673 64.812L630.667 64.3523C630.667 64.3389 630.667 64.3255 630.666 64.3121L610.673 64.812ZM614.425 228.024L594.43 228.484C594.43 228.501 594.431 228.519 594.431 228.537L614.425 228.024ZM604.241 240.62L607.647 260.328C607.852 260.292 608.056 260.254 608.259 260.212L604.241 240.62ZM560.825 248.124L557.418 228.416C557.376 228.424 557.334 228.431 557.291 228.439L560.825 248.124ZM545.549 240.352L563.437 231.408C563.407 231.347 563.376 231.286 563.345 231.226L545.549 240.352ZM513.389 177.64L531.185 168.514C531.181 168.507 531.178 168.5 531.174 168.493L513.389 177.64ZM507.493 178.712L487.597 176.671C487.596 176.685 487.594 176.699 487.593 176.712L507.493 178.712ZM501.865 234.724L521.717 237.145C521.735 237.005 521.75 236.864 521.764 236.723L501.865 234.724ZM490.073 245.712V225.712C489.997 225.712 489.922 225.712 489.847 225.713L490.073 245.712ZM442.637 246.248V266.248C442.712 266.248 442.787 266.248 442.863 266.247L442.637 246.248ZM432.185 235.796L412.193 235.221C412.192 235.242 412.192 235.262 412.191 235.283L432.185 235.796ZM435.401 124.04L455.392 124.615C455.393 124.59 455.394 124.565 455.394 124.54L435.401 124.04ZM425.217 115.464L429.139 135.076C429.171 135.069 429.203 135.063 429.235 135.056L425.217 115.464ZM423.877 115.732L419.954 96.1204L419.954 96.1204L423.877 115.732ZM413.157 107.156H433.157C433.157 107.103 433.156 107.051 433.156 106.999L413.157 107.156ZM412.889 73.12H392.889C392.889 73.1725 392.889 73.225 392.889 73.2775L412.889 73.12ZM423.341 60.792L420.39 41.0109C420.36 41.0154 420.33 41.0199 420.299 41.0246L423.341 60.792ZM494.111 70.3867C494.53 70.324 493.164 70.593 491.202 69.5783C489.231 68.5588 488.638 67.2673 488.8 67.5923L524.577 49.7037C521.524 43.5966 516.732 37.7492 509.579 34.0496C502.436 30.355 494.906 29.82 488.178 30.8293L494.111 70.3867ZM488.694 67.3772L519.246 130.357L555.235 112.899L524.683 49.9188L488.694 67.3772ZM519.455 130.775C520.473 132.756 521.976 135.449 524.003 137.882C524.991 139.067 526.846 141.106 529.634 142.844C532.464 144.609 538.019 147.1 545.046 145.621C552.16 144.123 556.292 139.509 558.217 136.571C560.077 133.735 560.901 131.018 561.289 129.504C562.086 126.392 562.269 123.28 562.326 121.069L522.339 120.043C522.307 121.316 522.211 120.862 522.539 119.581C522.692 118.982 523.235 116.975 524.765 114.641C526.361 112.206 530.115 107.887 536.805 106.479C543.408 105.089 548.491 107.463 550.801 108.904C553.07 110.319 554.359 111.827 554.732 112.275C555.532 113.234 555.616 113.627 555.026 112.481L519.455 130.775ZM562.322 121.219L564.198 64.6711L524.22 63.3449L522.344 119.893L562.322 121.219ZM564.133 65.7406C564.249 64.4161 564.322 67.5635 560.764 70.5284L535.157 39.7996C527.311 46.3378 524.883 55.3812 524.284 62.2754L564.133 65.7406ZM539.503 37.0403C539.565 37.0112 539.606 37.0028 539.589 37.0063C539.568 37.0109 539.423 37.04 539.117 37.04V77.04C544.996 77.04 550.865 75.8792 556.418 73.2876L539.503 37.0403ZM539.117 37.04C537.68 37.04 536.036 36.77 534.077 36.0031L519.501 73.2528C525.759 75.702 532.334 77.04 539.117 77.04V37.04ZM535.065 36.4207C531.696 34.8895 528.404 33.2053 525.187 31.3671L505.342 66.0968C509.629 68.5467 514.02 70.7932 518.513 72.8353L535.065 36.4207ZM525.187 31.3671C521.055 29.006 517.026 26.886 513.106 25.0292L495.983 61.1787C498.852 62.538 501.97 64.17 505.342 66.0969L525.187 31.3671ZM514.257 25.6209C509.127 22.7704 502.812 20.424 495.701 20.424V60.424C494.807 60.424 494.253 60.2744 494.121 60.2345C494.004 60.1989 494.234 60.2549 494.832 60.5871L514.257 25.6209ZM495.701 20.424C487.571 20.424 480.44 23.5961 474.95 28.6289L501.979 58.1151C501.505 58.55 500.661 59.1803 499.428 59.6828C498.168 60.1961 496.871 60.424 495.701 60.424V20.424ZM474.95 28.6289C472.144 31.2015 469.446 34.0244 466.847 37.0562L497.218 63.0878C498.907 61.1169 500.497 59.4732 501.979 58.1151L474.95 28.6289ZM467.89 35.93C467.533 36.2872 467.176 36.6445 466.819 37.0017L495.103 65.2862C495.46 64.9288 495.817 64.5714 496.175 64.214L467.89 35.93ZM466.818 37.002C466.461 37.3592 466.104 37.7165 465.747 38.0737L494.031 66.3582C494.388 66.0008 494.745 65.6434 495.103 65.286L466.818 37.002ZM482.717 72.015L493.973 70.407L488.316 30.809L477.06 32.417L482.717 72.015ZM479.276 34.9864C480.437 35.4506 481.266 35.9321 481.711 36.2107C482.182 36.5047 482.483 36.7351 482.597 36.8246C482.8 36.9844 482.697 36.9241 482.239 36.4659L453.954 64.7501C455.559 66.3542 459.341 70.0936 464.421 72.1256L479.276 34.9864ZM482.239 36.4659L481.435 35.6619L453.15 63.9461L453.954 64.7501L482.239 36.4659ZM482.344 36.6339C481.201 35.3276 481.163 34.8542 481.29 35.2625L443.111 47.1935C445.025 53.3192 448.381 58.563 452.241 62.9741L482.344 36.6339ZM481.29 35.2625C481.619 36.3151 481.757 37.5049 481.649 38.6837C481.546 39.8232 481.248 40.5868 481.101 40.8999L444.908 23.8681C441.624 30.8472 440.54 38.9651 443.111 47.1935L481.29 35.2625ZM481.437 40.1451C482.236 38.2491 483.343 36.2595 484.846 34.1778L452.419 10.7582C449.277 15.1085 446.632 19.7296 444.572 24.6228L481.437 40.1451ZM484.42 34.7468C486.341 32.276 488.225 30.217 490.051 28.5131L462.758 -0.729117C459.224 2.56965 455.926 6.22793 452.846 10.1892L484.42 34.7468ZM489.575 28.9435C491.042 27.6598 492.398 26.824 493.639 26.2722L477.394 -10.2802C472.203 -7.97337 467.485 -4.87846 463.234 -1.15955L489.575 28.9435ZM494.461 25.8845C494.945 25.6426 495.206 25.5694 495.254 25.5568C495.292 25.5471 495.16 25.584 494.897 25.584V-14.416C488.233 -14.416 482.058 -12.6355 476.572 -9.89256L494.461 25.8845ZM494.897 25.584C496.316 25.584 497.565 25.8451 498.81 26.3789L514.567 -10.3869C508.308 -13.0692 501.696 -14.416 494.897 -14.416V25.584ZM499.116 26.5069C502.273 27.7983 505.11 29.1908 507.656 30.6645L527.697 -3.95251C523.453 -6.40952 518.966 -8.59032 514.261 -10.515L499.116 26.5069ZM508.038 30.8803C511.811 32.9552 515.438 34.8654 518.916 36.6045L536.805 0.827447C533.851 -0.649456 530.689 -2.31259 527.315 -4.16833L508.038 30.8803ZM518.916 36.6045C524.402 39.3474 530.577 41.128 537.241 41.128V1.12799C537.504 1.12799 537.636 1.16492 537.598 1.15513C537.55 1.14257 537.289 1.06942 536.805 0.827447L518.916 36.6045ZM537.241 41.128C543.423 41.128 550.214 39.7322 556.375 35.625L534.187 2.34299C536.059 1.09446 537.49 1.12799 537.241 1.12799V41.128ZM557.281 34.984C560.941 32.2389 564.163 29.0161 566.909 25.356L534.909 1.35597C534.438 1.98385 533.909 2.51305 533.281 2.98398L557.281 34.984ZM567.55 24.45C567.85 24.0001 567.509 24.6505 566.339 25.5889C565.101 26.5826 562.296 28.3821 558.096 28.6822C553.666 28.9986 550.145 27.4759 548.036 26.0094C547.062 25.3323 546.418 24.6974 546.063 24.309C545.704 23.9168 545.534 23.6622 545.524 23.646L578.806 1.45798C575.952 -2.82219 568.341 -12.1516 555.246 -11.2162C543.471 -10.3752 536.843 -1.6012 534.268 2.26202L567.55 24.45ZM545.341 23.3671L547.753 27.1191L581.4 5.48883L578.988 1.73683L545.341 23.3671ZM547.427 26.5939C548.841 28.9508 549.283 30.3208 549.396 30.8008L588.333 21.6392C587.016 16.0445 584.6 10.8038 581.726 6.01409L547.427 26.5939ZM549.396 30.8008C549.288 30.3408 549.211 29.6785 549.282 28.8983C549.353 28.118 549.548 27.4805 549.737 27.0476L586.384 43.0804C589.369 36.2571 590.039 28.8889 588.333 21.6392L549.396 30.8008ZM549.436 27.776C548.765 29.489 547.832 30.965 546.552 32.3195L575.633 59.7845C580.428 54.707 584.14 48.8577 586.685 42.3519L549.436 27.776ZM546.552 32.3195C544.821 34.1521 543.143 35.4171 541.538 36.2997L560.815 71.3483C566.357 68.3002 571.289 64.3838 575.633 59.7845L546.552 32.3195ZM556.027 73.2269C555.701 73.3083 554.632 73.556 553.053 73.556V33.556C550.401 33.556 548.081 33.9823 546.326 34.4211L556.027 73.2269ZM559.377 72.5297C558.11 72.952 557.084 73.124 556.471 73.2006C555.838 73.2797 555.391 73.288 555.197 73.288V33.288C553.251 33.288 550.134 33.4471 546.728 34.5823L559.377 72.5297ZM554.835 73.2847L599.323 74.0887L600.046 34.0953L555.558 33.2913L554.835 73.2847ZM599.685 74.092C600.134 74.092 597 74.1849 593.825 71.0876C590.651 67.9914 590.667 64.8584 590.679 65.3118L630.666 64.3121C630.499 57.619 628.594 49.1259 621.758 42.4563C614.921 35.7857 606.382 34.092 599.685 34.092V74.092ZM590.678 65.2716L594.43 228.484L634.419 227.564L630.667 64.3523L590.678 65.2716ZM594.431 228.537C594.435 228.68 594.387 226.388 596.46 223.825C598.491 221.312 600.618 220.947 600.222 221.028L608.259 260.212C614.831 258.864 622.139 255.685 627.565 248.973C633.032 242.211 634.593 234.336 634.418 227.511L594.431 228.537ZM600.834 220.912L557.418 228.416L564.231 267.832L607.647 260.328L600.834 220.912ZM557.291 228.439C557.053 228.481 558.658 228.179 560.849 229.293C563.007 230.391 563.632 231.797 563.437 231.408L527.66 249.296C530.681 255.339 535.461 261.256 542.71 264.945C549.993 268.65 557.628 269.017 564.358 267.809L557.291 228.439ZM563.345 231.226L531.185 168.514L495.592 186.766L527.752 249.478L563.345 231.226ZM531.174 168.493C530.111 166.425 528.499 163.564 526.234 160.987C525.205 159.816 517.9 151.363 505.925 153.541C493.838 155.738 490.028 166.356 489.481 167.854C488.294 171.097 487.834 174.364 487.597 176.671L527.388 180.753C527.509 179.576 527.562 180.186 527.046 181.597C526.786 182.307 526.024 184.234 524.273 186.364C522.398 188.644 518.749 191.865 513.08 192.895C507.434 193.922 502.919 192.205 500.412 190.78C498.056 189.44 496.675 187.947 496.188 187.392C495.218 186.289 495.058 185.728 495.603 186.787L531.174 168.493ZM487.593 176.712L481.965 232.725L521.764 236.723L527.392 180.712L487.593 176.712ZM482.012 232.303C481.923 233.031 482.035 230.734 484.612 228.333C487.346 225.786 490.047 225.712 490.073 225.712V265.712C497.066 265.712 505.217 263.807 511.881 257.597C518.389 251.533 520.913 243.742 521.717 237.145L482.012 232.303ZM489.847 225.713L442.411 226.249L442.863 266.247L490.299 265.711L489.847 225.713ZM442.637 226.248C441.975 226.248 445.39 226.077 448.806 229.493C452.32 233.007 452.17 236.628 452.178 236.309L412.191 235.283C412.021 241.932 413.523 250.779 420.521 257.777C427.422 264.677 436.152 266.248 442.637 266.248V226.248ZM452.176 236.371L455.392 124.615L415.409 123.465L412.193 235.221L452.176 236.371ZM455.394 124.54C455.543 118.584 454.449 108.461 445.871 101.238C437.258 93.9848 427.066 94.6682 421.198 95.8719L429.235 135.056C430.335 134.83 425.324 136.229 420.106 131.834C414.923 127.47 415.437 122.35 415.407 123.54L455.394 124.54ZM421.294 95.8524L419.954 96.1204L427.799 135.344L429.139 135.076L421.294 95.8524ZM419.954 96.1204C418.77 96.3571 423.348 95.0563 428.33 99.0426C433.445 103.134 433.157 108.094 433.157 107.156H393.157C393.157 113.365 394.655 123.327 403.343 130.277C411.899 137.122 421.836 136.536 427.799 135.344L419.954 96.1204ZM433.156 106.999L432.888 72.9625L392.889 73.2775L393.157 107.313L433.156 106.999ZM432.889 73.12C432.889 72.7207 432.956 75.0171 430.757 77.6117C428.527 80.242 426.163 80.5931 426.382 80.5594L420.299 41.0246C413.551 42.0628 405.96 45.0047 400.246 51.7443C394.563 58.4482 392.889 66.3726 392.889 73.12H432.889ZM426.291 80.5731L474.799 73.3371L468.898 33.7749L420.39 41.0109L426.291 80.5731ZM723.013 155.128L742.664 151.41C742.634 151.252 742.602 151.095 742.569 150.937L723.013 155.128ZM717.385 128.864L736.941 124.673C736.938 124.661 736.936 124.649 736.933 124.637L717.385 128.864ZM712.829 128.864L693.395 124.137C693.352 124.315 693.311 124.494 693.273 124.673L712.829 128.864ZM707.201 155.128L687.645 150.937C687.611 151.095 687.579 151.252 687.549 151.41L707.201 155.128ZM649.581 133.688L668.998 138.48C669.013 138.419 669.028 138.358 669.042 138.297L649.581 133.688ZM624.389 113.588L605.236 107.828C605.23 107.848 605.224 107.868 605.218 107.889L624.389 113.588ZM635.109 77.944L654.261 83.7042C654.267 83.6839 654.273 83.6637 654.279 83.6434L635.109 77.944ZM649.045 68.028L649.309 48.0297C649.221 48.0286 649.133 48.028 649.045 48.028V68.028ZM750.349 69.368L750.084 89.3662C750.172 89.3674 750.261 89.368 750.349 89.368V69.368ZM763.749 80.088L783.094 75.0127C783.074 74.9367 783.054 74.8607 783.033 74.7849L763.749 80.088ZM805.021 237.404L824.394 232.436C824.385 232.401 824.375 232.365 824.366 232.329L805.021 237.404ZM796.981 248.124L796.481 228.13C796.393 228.132 796.305 228.135 796.217 228.139L796.981 248.124ZM754.905 249.732L755.405 269.726C755.493 269.724 755.581 269.721 755.669 269.717L754.905 249.732ZM741.237 239.548L721.929 244.766C721.948 244.837 721.968 244.907 721.988 244.977L741.237 239.548ZM735.877 219.716L755.184 214.498C755.176 214.469 755.169 214.441 755.161 214.413L735.877 219.716ZM722.209 209.8L723.569 229.754C723.614 229.751 723.659 229.747 723.705 229.744L722.209 209.8ZM710.417 210.604L709.056 190.65C709.011 190.653 708.966 190.657 708.921 190.66L710.417 210.604ZM697.017 221.592L716.32 226.827C716.333 226.778 716.346 226.73 716.358 226.682L697.017 221.592ZM692.729 237.404L673.426 232.169C673.402 232.258 673.378 232.347 673.355 232.436L692.729 237.404ZM679.329 247.856V227.856C679.253 227.856 679.178 227.856 679.103 227.857L679.329 247.856ZM631.893 248.392V268.392C631.968 268.392 632.043 268.392 632.119 268.391L631.893 248.392ZM623.853 237.94L604.435 233.148C604.411 233.246 604.388 233.344 604.365 233.443L623.853 237.94ZM715.241 185.044C721.271 185.044 730.997 183.517 737.749 174.903C744.269 166.584 743.728 157.031 742.664 151.41L703.361 158.846C703.549 159.836 702.337 155.241 706.267 150.227C708.232 147.72 710.612 146.324 712.465 145.645C713.335 145.326 714.038 145.181 714.486 145.113C714.934 145.046 715.201 145.044 715.241 145.044V185.044ZM742.569 150.937L736.941 124.673L697.829 133.055L703.457 159.319L742.569 150.937ZM736.933 124.637C736.489 122.584 735.782 119.737 734.562 117C733.983 115.702 732.775 113.233 730.565 110.792C728.383 108.382 723.226 103.906 715.174 103.906C707.208 103.906 702.098 108.297 699.972 110.577C697.778 112.93 696.542 115.318 695.938 116.594C694.669 119.277 693.894 122.086 693.395 124.137L732.262 133.591C732.567 132.337 732.585 132.666 732.098 133.697C731.885 134.146 731.037 135.915 729.228 137.855C727.487 139.722 722.76 143.906 715.174 143.906C707.501 143.906 702.721 139.636 700.913 137.639C699.077 135.611 698.24 133.763 698.03 133.291C697.546 132.207 697.566 131.839 697.836 133.091L736.933 124.637ZM693.273 124.673L687.645 150.937L726.757 159.319L732.385 133.055L693.273 124.673ZM687.549 151.41C686.462 157.159 685.988 166.836 692.738 175.161C699.58 183.6 709.269 185.044 715.241 185.044V145.044C715.243 145.044 715.296 145.044 715.395 145.051C715.493 145.057 715.648 145.071 715.851 145.101C716.249 145.16 716.901 145.289 717.724 145.581C719.465 146.201 721.817 147.513 723.808 149.969C727.878 154.989 726.689 159.707 726.852 158.846L687.549 151.41ZM669.042 138.297C670.395 132.588 671.427 122.464 664.474 113.657C657.514 104.84 647.417 103.504 641.541 103.504V143.504C642.633 143.504 637.36 143.865 633.079 138.443C628.806 133.03 630.375 127.999 630.119 129.079L669.042 138.297ZM641.541 103.504H631.893V143.504H641.541V103.504ZM631.893 103.504C630.469 103.504 636.242 103.013 640.739 108.956C645.303 114.988 643.192 120.523 643.559 119.287L605.218 107.889C603.62 113.264 601.777 123.757 608.843 133.094C615.841 142.342 626.349 143.504 631.893 143.504V103.504ZM643.541 119.348L654.261 83.7042L615.956 72.1838L605.236 107.828L643.541 119.348ZM654.279 83.6434C654.289 83.6107 654.166 84.0399 653.726 84.6998C653.263 85.3942 652.574 86.1537 651.662 86.8028C649.747 88.1653 648.355 88.028 649.045 88.028V48.028C642.41 48.028 635.032 49.5434 628.472 54.2112C621.797 58.9604 617.918 65.5856 615.938 72.2446L654.279 83.6434ZM648.78 88.0262L750.084 89.3662L750.613 49.3697L649.309 48.0297L648.78 88.0262ZM750.349 89.368C750.39 89.368 749.927 89.3735 749.14 89.1276C748.31 88.8682 747.346 88.3978 746.431 87.6654C744.514 86.1317 744.27 84.6839 744.465 85.3911L783.033 74.7849C781.262 68.3454 777.802 61.5377 771.419 56.4306C764.916 51.2282 757.352 49.368 750.349 49.368V89.368ZM744.403 85.1633L785.675 242.479L824.366 232.329L783.094 75.0127L744.403 85.1633ZM785.647 242.372C785.949 243.547 784.304 238.705 788.351 233.31C792.432 227.869 797.609 228.102 796.481 228.13L797.481 268.118C803.499 267.967 813.59 266.324 820.351 257.31C827.077 248.341 825.879 238.229 824.394 232.436L785.647 242.372ZM796.217 228.139L754.141 229.747L755.669 269.717L797.745 268.109L796.217 228.139ZM754.405 229.738C754.13 229.745 755.923 229.677 758.077 231.282C760.205 232.868 760.603 234.536 760.486 234.119L721.988 244.977C723.835 251.528 727.494 258.378 734.178 263.358C740.888 268.357 748.533 269.898 755.405 269.726L754.405 229.738ZM760.544 234.33L755.184 214.498L716.569 224.934L721.929 244.766L760.544 234.33ZM755.161 214.413C753.357 207.855 749.706 200.749 742.73 195.689C735.671 190.567 727.684 189.333 720.713 189.856L723.705 229.744C723.88 229.731 721.744 229.881 719.241 228.065C716.822 226.31 716.431 224.43 716.593 225.019L755.161 214.413ZM720.848 189.846L709.056 190.65L711.777 230.558L723.569 229.754L720.848 189.846ZM708.921 190.66C702.244 191.161 695.132 193.28 689.025 198.288C682.885 203.322 679.405 209.929 677.675 216.502L716.358 226.682C716.415 226.466 716.061 227.846 714.388 229.218C712.748 230.563 711.443 230.583 711.913 230.548L708.921 190.66ZM677.714 216.357L673.426 232.169L712.032 242.639L716.32 226.827L677.714 216.357ZM673.355 232.436C673.26 232.808 673.638 231.111 675.738 229.473C677.852 227.824 679.631 227.856 679.329 227.856V267.856C686.173 267.856 693.759 266.146 700.339 261.013C706.906 255.891 710.411 248.968 712.102 242.372L673.355 232.436ZM679.103 227.857L631.667 228.393L632.119 268.391L679.555 267.855L679.103 227.857ZM631.893 228.392C630.954 228.392 636.282 228.09 640.509 233.585C644.59 238.89 643.05 243.695 643.341 242.437L604.365 233.443C603.047 239.153 602.043 249.184 608.804 257.973C615.711 266.952 625.864 268.392 631.893 268.392V228.392ZM643.27 242.732L668.998 138.48L630.163 128.896L604.435 233.148L643.27 242.732Z" fill="#653FD3"/>
</g>
<defs>
<filter id="filter0_d_8_2" x="0.68" y="0.511978" width="818.021" height="276.332" filterUnits="userSpaceOnUse" color-interpolation-filters="sRGB">
<feFlood flood-opacity="0" result="BackgroundImageFix"/>
<feColorMatrix in="SourceAlpha" type="matrix" values="0 0 0 0 0 0 0 0 0 0 0 0 0 0 0 0 0 0 127 0" result="hardAlpha"/>
<feOffset dy="7"/>
<feGaussianBlur stdDeviation="5.5"/>
<feComposite in2="hardAlpha" operator="out"/>
<feColorMatrix type="matrix" values="0 0 0 0 0 0 0 0 0 0 0 0 0 0 0 0 0 0 0.25 0"/>
<feBlend mode="normal" in2="BackgroundImageFix" result="effect1_dropShadow_8_2"/>
<feBlend mode="normal" in="SourceGraphic" in2="effect1_dropShadow_8_2" result="shape"/>
</filter>
</defs>
</svg>
